<svg width="20" height="20" viewBox="0 0 20 20" fill="none" xmlns="http://www.w3.org/2000/svg">
<path fill-rule="evenodd" clip-rule="evenodd" d="M16 3H18C18.5523 3 19 3.44772 19 4V18C19 18.5523 18.5523 19 18 19H2C1.44772 19 1 18.5523 1 18V4C1 3.44772 1.44772 3 2 3H4V2C4 1.44772 4.44772 1 5 1C5.55228 1 6 1.44772 6 2V3H14V2C14 1.44772 14.4477 1 15 1C15.5523 1 16 1.44772 16 2V3Z" stroke="#FF8822" stroke-width="2" stroke-linecap="round" stroke-linejoin="round"/>
<path fill-rule="evenodd" clip-rule="evenodd" d="M15 11H12C11.4477 11 11 11.4477 11 12V15C11 15.5523 11.4477 16 12 16H15C15.5523 16 16 15.5523 16 15V12C16 11.4477 15.5523 11 15 11Z" fill="#FF8822"/>
<path d="M19 3H1V8H19V3Z" fill="#FF8822"/>
</svg>
